<svg xmlns="http://www.w3.org/2000/svg" width="24" height="24" viewBox="0 0 24 24" fill="none">
  <path d="M 24 5.5 L 24 18.5 C 23.998 19.958 23.418 21.356 22.387 22.387 C 21.356 23.418 19.958 23.998 18.5 24 L 5.5 24 C 4.042 23.998 2.644 23.418 1.613 22.387 C 0.582 21.356 0.002 19.958 0 18.5 L 0 5.5 C 0.002 4.042 0.582 2.644 1.613 1.613 C 2.644 0.582 4.042 0.002 5.5 0 L 18.5 0 C 19.958 0.002 21.356 0.582 22.387 1.613 C 23.418 2.644 23.998 4.042 24 5.5 Z M 3 18.5 C 3 19.163 3.263 19.799 3.732 20.268 C 4.201 20.737 4.837 21 5.5 21 L 18.5 21 C 19.163 21 19.799 20.737 20.268 20.268 C 20.737 19.799 21 19.163 21 18.5 L 21 5.5 C 21 4.837 20.737 4.201 20.268 3.732 C 19.799 3.263 19.163 3 18.5 3 L 5.5 3 C 4.837 3 4.201 3.263 3.732 3.732 C 3.263 4.201 3 4.837 3 5.5 L 3 18.5 Z M 14.779 9.04 L 12.233 6.449 C 12.097 6.299 11.933 6.178 11.749 6.094 C 11.566 6.009 11.367 5.962 11.165 5.956 C 10.963 5.95 10.762 5.985 10.574 6.059 C 10.386 6.133 10.214 6.244 10.07 6.385 C 9.926 6.527 9.812 6.696 9.735 6.883 C 9.658 7.07 9.619 7.27 9.621 7.472 C 9.623 7.674 9.666 7.874 9.748 8.059 C 9.829 8.244 9.947 8.411 10.094 8.549 L 12.648 11.149 C 12.869 11.379 12.992 11.685 12.991 12.004 C 12.989 12.323 12.863 12.629 12.639 12.856 L 10.094 15.447 C 9.947 15.585 9.829 15.752 9.748 15.937 C 9.666 16.122 9.623 16.322 9.621 16.524 C 9.619 16.726 9.658 16.926 9.735 17.113 C 9.812 17.3 9.926 17.469 10.07 17.611 C 10.214 17.752 10.386 17.863 10.574 17.937 C 10.762 18.011 10.963 18.046 11.165 18.04 C 11.367 18.034 11.566 17.987 11.749 17.902 C 11.933 17.818 12.097 17.697 12.233 17.547 L 14.77 14.97 C 15.556 14.184 15.998 13.118 16 12.007 C 16.001 10.895 15.562 9.828 14.779 9.04 Z" fill="currentColor" fill-rule="nonzero"></path>
</svg>