<svg xmlns="http://www.w3.org/2000/svg" width="8.170" height="15.000" viewBox="0 0 8.170 15.000" fill="none">
  <path d="M 7.147 5.025 L 2.561 0.439 C 2.279 0.158 1.898 0 1.5 0 C 1.102 0 0.72 0.158 0.439 0.44 C 0.158 0.721 0 1.103 0 1.5 C 0 1.898 0.158 2.28 0.44 2.561 L 5.026 7.146 C 5.072 7.193 5.109 7.248 5.134 7.308 C 5.16 7.369 5.173 7.434 5.173 7.5 C 5.173 7.566 5.16 7.631 5.134 7.692 C 5.109 7.753 5.072 7.808 5.026 7.854 L 0.44 12.439 C 0.158 12.72 0 13.102 0 13.5 C 0 13.898 0.158 14.279 0.439 14.561 C 0.72 14.842 1.102 15 1.5 15 C 1.898 15 2.279 14.842 2.561 14.561 L 7.147 9.975 C 7.802 9.318 8.17 8.428 8.17 7.5 C 8.17 6.572 7.802 5.682 7.147 5.025 Z" fill="currentColor" fill-rule="nonzero"></path>
</svg>