<svg xmlns="http://www.w3.org/2000/svg" width="8.170" height="15.000" viewBox="0 0 8.170 15.000" fill="none">
  <path d="M 3.144 7.854 C 3.098 7.808 3.061 7.753 3.035 7.692 C 3.01 7.631 2.997 7.566 2.997 7.5 C 2.997 7.434 3.01 7.369 3.035 7.308 C 3.061 7.248 3.098 7.193 3.144 7.146 L 7.73 2.561 C 8.012 2.28 8.17 1.898 8.17 1.5 C 8.17 1.103 8.012 0.721 7.731 0.44 C 7.449 0.158 7.068 0 6.67 0 C 6.272 0 5.891 0.158 5.609 0.439 L 1.023 5.025 C 0.368 5.682 0 6.572 0 7.5 C 0 8.428 0.368 9.318 1.023 9.975 L 5.609 14.561 C 5.891 14.842 6.272 15 6.67 15 C 7.068 15 7.449 14.842 7.731 14.561 C 8.012 14.279 8.17 13.898 8.17 13.5 C 8.17 13.102 8.012 12.72 7.73 12.439 L 3.144 7.854 Z" fill="currentColor" fill-rule="nonzero"></path>
</svg>