<svg xmlns="http://www.w3.org/2000/svg" width="15.000" height="8.172" viewBox="0 0 15.000 8.172" fill="none">
  <path d="M 14.561 0.44 C 14.422 0.3 14.256 0.19 14.074 0.114 C 13.892 0.039 13.697 0 13.5 0 C 13.303 0 13.108 0.039 12.926 0.114 C 12.744 0.19 12.578 0.3 12.439 0.44 L 7.853 5.025 C 7.759 5.118 7.632 5.171 7.5 5.171 C 7.367 5.171 7.24 5.118 7.146 5.025 L 2.561 0.44 C 2.28 0.158 1.898 0 1.5 0 C 1.103 0 0.721 0.158 0.44 0.439 C 0.158 0.72 0 1.102 0 1.5 C 0 1.898 0.158 2.279 0.439 2.561 L 5.025 7.147 C 5.35 7.472 5.736 7.73 6.161 7.905 C 6.585 8.081 7.04 8.172 7.5 8.172 C 7.96 8.172 8.415 8.081 8.84 7.905 C 9.264 7.73 9.65 7.472 9.975 7.147 L 14.561 2.561 C 14.842 2.279 15 1.898 15 1.5 C 15 1.102 14.842 0.721 14.561 0.44 Z" fill="currentColor" fill-rule="nonzero"></path>
</svg>