<svg xmlns="http://www.w3.org/2000/svg" width="24" height="24" viewBox="0 0 24 24" fill="currentColor"><path d="M 12 0 C 5.373 0 0 5.373 0 12 C 0 18.627 5.373 24 12 24 C 18.627 24 24 18.627 24 12 C 23.993 5.376 18.624 0.007 12 0 Z M 12 3 C 13.868 3 15.688 3.585 17.207 4.672 L 4.672 17.206 C 1.789 13.166 2.727 7.555 6.766 4.672 C 8.294 3.582 10.124 2.997 12 3 Z M 12 21 C 10.133 21 8.312 20.415 6.794 19.328 L 19.328 6.793 C 22.211 10.832 21.275 16.444 17.235 19.328 C 15.708 20.418 13.877 21.003 12 21 Z" fill-rule="nonzero"></path></svg>