<svg xmlns="http://www.w3.org/2000/svg" width="13.172" height="7.586" viewBox="0 0 13.172 7.586" fill="none">
  <path d="M 1 0 L 12.172 0 C 12.37 0 12.563 0.059 12.727 0.169 C 12.892 0.278 13.02 0.435 13.095 0.617 C 13.171 0.8 13.191 1.001 13.152 1.195 C 13.114 1.389 13.019 1.567 12.879 1.707 L 7.293 7.293 C 7.105 7.48 6.851 7.586 6.586 7.586 C 6.321 7.586 6.066 7.48 5.879 7.293 L 0.293 1.707 C 0.153 1.567 0.058 1.389 0.019 1.195 C -0.019 1.001 0 0.8 0.076 0.617 C 0.152 0.435 0.28 0.278 0.444 0.169 C 0.609 0.059 0.802 0 1 0 Z" fill="currentColor" fill-rule="nonzero"></path>
</svg>