<svg xmlns="http://www.w3.org/2000/svg" width="24" height="24" viewBox="0 0 24 24" fill="none">
  <path d="M 12 0 C 5.383 0 0 5.383 0 12 C 0 18.617 5.383 24 12 24 C 18.617 24 24 18.617 24 12 C 24 5.383 18.617 0 12 0 Z M 18.2 10.512 L 13.774 14.857 C 12.991 15.625 11.983 16.008 10.974 16.008 C 9.976 16.008 8.978 15.632 8.198 14.879 L 6.299 13.012 C 5.905 12.625 5.9 11.992 6.287 11.598 C 6.673 11.203 7.308 11.198 7.701 11.586 L 9.594 13.447 C 10.37 14.197 11.595 14.193 12.375 13.429 L 16.8 9.085 C 17.193 8.697 17.824 8.704 18.214 9.098 C 18.601 9.492 18.595 10.125 18.2 10.512 Z" fill="currentColor" fill-rule="nonzero"></path>
</svg>