<svg xmlns="http://www.w3.org/2000/svg" width="24" height="24" viewBox="0 0 24 24" fill="none">
  <path d="M 12 0 C 5.383 0 0 5.383 0 12 C 0 18.617 5.383 24 12 24 C 18.617 24 24 18.617 24 12 C 24 5.383 18.617 0 12 0 Z M 15.707 14.293 C 16.098 14.684 16.098 15.316 15.707 15.707 C 15.512 15.902 15.256 16 15 16 C 14.744 16 14.488 15.902 14.293 15.707 L 12 13.414 L 9.707 15.707 C 9.512 15.902 9.256 16 9 16 C 8.744 16 8.488 15.902 8.293 15.707 C 7.902 15.316 7.902 14.684 8.293 14.293 L 10.586 12 L 8.293 9.707 C 7.902 9.316 7.902 8.684 8.293 8.293 C 8.684 7.902 9.316 7.902 9.707 8.293 L 12 10.586 L 14.293 8.293 C 14.684 7.902 15.316 7.902 15.707 8.293 C 16.098 8.684 16.098 9.316 15.707 9.707 L 13.414 12 L 15.707 14.293 Z" fill="currentColor" fill-rule="nonzero"></path>
</svg>