<svg xmlns="http://www.w3.org/2000/svg" width="24" height="24" viewBox="0 0 24 24" fill="none">
  <path d="M 12 0 C 9.627 0 7.307 0.704 5.333 2.022 C 3.36 3.341 1.822 5.215 0.913 7.408 C 0.005 9.601 -0.232 12.013 0.231 14.341 C 0.694 16.669 1.836 18.807 3.515 20.485 C 5.193 22.164 7.331 23.306 9.659 23.769 C 11.987 24.232 14.399 23.995 16.592 23.087 C 18.785 22.178 20.659 20.64 21.978 18.667 C 23.296 16.693 24 14.373 24 12 C 23.997 8.818 22.731 5.768 20.481 3.519 C 18.232 1.269 15.182 0.003 12 0 Z M 12 21 C 10.22 21 8.48 20.472 7 19.483 C 5.52 18.494 4.366 17.089 3.685 15.444 C 3.004 13.8 2.826 11.99 3.173 10.244 C 3.52 8.498 4.377 6.895 5.636 5.636 C 6.895 4.377 8.498 3.52 10.244 3.173 C 11.99 2.826 13.8 3.004 15.444 3.685 C 17.089 4.366 18.494 5.52 19.483 7 C 20.472 8.48 21 10.22 21 12 C 20.997 14.386 20.048 16.674 18.361 18.361 C 16.674 20.048 14.386 20.997 12 21 Z" fill="currentColor" fill-rule="nonzero"></path>
  <path d="M 10.5 11.055 L 8.1 12.555 C 7.933 12.66 7.788 12.796 7.674 12.957 C 7.56 13.117 7.478 13.299 7.434 13.491 C 7.39 13.683 7.384 13.881 7.417 14.076 C 7.45 14.27 7.52 14.456 7.625 14.623 C 7.73 14.79 7.866 14.935 8.027 15.049 C 8.187 15.163 8.369 15.245 8.561 15.289 C 8.753 15.333 8.951 15.339 9.146 15.306 C 9.34 15.273 9.526 15.203 9.693 15.098 L 12.562 13.298 C 12.85 13.118 13.087 12.867 13.251 12.569 C 13.415 12.272 13.501 11.938 13.5 11.598 L 13.5 7.772 C 13.5 7.374 13.342 6.993 13.061 6.711 C 12.779 6.43 12.398 6.272 12 6.272 C 11.602 6.272 11.221 6.43 10.939 6.711 C 10.658 6.993 10.5 7.374 10.5 7.772 L 10.5 11.055 Z" fill="currentColor" fill-rule="nonzero"></path>
</svg>