<svg xmlns="http://www.w3.org/2000/svg" width="24" height="23.666" viewBox="0 0 24 23.666" fill="none">
  <path d="M 18.5 0 L 5.5 0 C 2.468 0 0 2.467 0 5.5 L 0 14.5 C 0 17.533 2.468 20 5.5 20 L 6.74 20 L 10.34 23.031 C 10.819 23.456 11.419 23.666 12.014 23.666 C 12.596 23.666 13.172 23.464 13.62 23.066 L 17.328 20 L 18.5 20 C 21.532 20 24 17.533 24 14.5 L 24 5.5 C 24 2.467 21.532 0 18.5 0 Z M 21 14.5 C 21 15.878 19.879 17 18.5 17 L 16.788 17 C 16.439 17 16.101 17.122 15.832 17.344 L 12.004 20.511 L 8.255 17.353 C 7.984 17.125 7.642 17 7.288 17 L 5.5 17 C 4.121 17 3 15.878 3 14.5 L 3 5.5 C 3 4.122 4.121 3 5.5 3 L 18.5 3 C 19.879 3 21 4.122 21 5.5 L 21 14.5 Z M 13.5 10.5 C 13.5 11.328 12.828 12 12 12 C 11.172 12 10.5 11.328 10.5 10.5 C 10.5 9.672 11.172 9 12 9 C 12.828 9 13.5 9.672 13.5 10.5 Z M 18.5 10.5 C 18.5 11.328 17.828 12 17 12 C 16.172 12 15.5 11.328 15.5 10.5 C 15.5 9.672 16.172 9 17 9 C 17.828 9 18.5 9.672 18.5 10.5 Z M 8.5 10.5 C 8.5 11.328 7.828 12 7 12 C 6.172 12 5.5 11.328 5.5 10.5 C 5.5 9.672 6.172 9 7 9 C 7.828 9 8.5 9.672 8.5 10.5 Z" fill="currentColor" fill-rule="nonzero"></path>
</svg>