<svg xmlns="http://www.w3.org/2000/svg" width="24" height="24" viewBox="0 0 24 24" fill="none">
  <path d="M 14.121 12 L 23.561 2.561 C 24.146 1.975 24.146 1.025 23.561 0.439 C 22.975 -0.146 22.025 -0.146 21.439 0.439 L 12 9.879 L 2.561 0.439 C 1.975 -0.146 1.025 -0.146 0.439 0.439 C -0.146 1.025 -0.146 1.975 0.439 2.561 L 9.879 12 L 0.439 21.439 C -0.146 22.025 -0.146 22.975 0.439 23.561 C 1.025 24.146 1.975 24.146 2.561 23.561 L 12 14.121 L 21.439 23.561 C 22.025 24.146 22.975 24.146 23.56 23.561 C 24.146 22.975 24.146 22.025 23.56 21.439 L 14.121 12 Z" fill="currentColor" fill-rule="nonzero"></path>
</svg>