<svg xmlns="http://www.w3.org/2000/svg" width="12.940" height="12.952" viewBox="0 0 12.940 12.952" fill="none">
  <path d="M 8.621 6.451 L 12.5 2.568 C 12.752 2.282 12.886 1.911 12.873 1.53 C 12.861 1.149 12.704 0.787 12.435 0.517 C 12.165 0.247 11.803 0.091 11.422 0.078 C 11.041 0.066 10.67 0.2 10.383 0.451 L 6.5 4.33 L 2.61 0.439 C 2.471 0.3 2.306 0.19 2.124 0.114 C 1.941 0.039 1.746 0 1.549 0 C 1.352 0 1.157 0.039 0.975 0.114 C 0.793 0.19 0.628 0.3 0.488 0.439 C 0.349 0.579 0.238 0.744 0.163 0.926 C 0.088 1.108 0.049 1.303 0.049 1.5 C 0.049 1.698 0.088 1.893 0.163 2.075 C 0.238 2.257 0.349 2.422 0.488 2.561 L 4.379 6.451 L 0.5 10.333 C 0.348 10.469 0.225 10.635 0.139 10.82 C 0.054 11.005 0.006 11.206 0.001 11.41 C -0.005 11.614 0.031 11.817 0.106 12.006 C 0.182 12.196 0.295 12.368 0.439 12.512 C 0.584 12.657 0.756 12.77 0.945 12.846 C 1.135 12.921 1.338 12.957 1.542 12.951 C 1.746 12.946 1.947 12.898 2.132 12.812 C 2.317 12.726 2.482 12.604 2.618 12.451 L 6.5 8.572 L 10.378 12.451 C 10.66 12.733 11.041 12.891 11.439 12.891 C 11.837 12.891 12.219 12.733 12.5 12.451 C 12.782 12.17 12.94 11.788 12.94 11.39 C 12.94 10.993 12.782 10.611 12.5 10.329 L 8.621 6.451 Z" fill="currentColor" fill-rule="nonzero"></path>
</svg>