<svg xmlns="http://www.w3.org/2000/svg" width="23.996" height="24.001" viewBox="0 0 23.996 24.001" fill="none">
  <path d="M 22.532 8.466 L 15.533 1.465 C 14.588 0.521 13.333 0 11.997 0 C 10.661 0 9.405 0.521 8.461 1.465 L 1.462 8.466 C -0.487 10.415 -0.487 13.586 1.462 15.535 L 8.461 22.536 C 9.405 23.48 10.661 24.001 11.997 24.001 C 13.333 24.001 14.588 23.48 15.533 22.536 L 22.532 15.535 C 23.476 14.591 23.996 13.336 23.996 12.001 C 23.996 10.666 23.476 9.41 22.532 8.466 Z M 17.961 10.11 L 13.535 14.455 C 12.752 15.223 11.744 15.606 10.735 15.606 C 9.737 15.606 8.739 15.23 7.959 14.477 L 6.06 12.61 C 5.666 12.223 5.661 11.59 6.048 11.196 C 6.434 10.801 7.069 10.796 7.462 11.184 L 9.355 13.045 C 10.131 13.795 11.356 13.791 12.136 13.027 L 16.561 8.683 C 16.954 8.295 17.585 8.302 17.975 8.696 C 18.362 9.09 18.356 9.723 17.961 10.11 Z" fill="currentColor" fill-rule="evenodd"></path>
</svg>