<svg xmlns="http://www.w3.org/2000/svg" width="23.996" height="24.001" viewBox="0 0 23.996 24.001" fill="none">
  <path d="M 15.533 1.465 L 22.532 8.466 C 23.476 9.41 23.996 10.666 23.996 12.001 C 23.996 13.336 23.476 14.591 22.532 15.535 L 15.533 22.536 C 14.588 23.48 13.333 24.001 11.997 24.001 C 10.661 24.001 9.405 23.48 8.461 22.536 L 1.462 15.535 C -0.487 13.586 -0.487 10.415 1.462 8.466 L 8.461 1.465 C 9.405 0.521 10.661 0 11.997 0 C 13.333 0 14.588 0.521 15.533 1.465 Z M 15.719 14.315 C 16.11 14.706 16.11 15.338 15.719 15.729 C 15.524 15.924 15.268 16.022 15.012 16.022 C 14.756 16.022 14.5 15.924 14.305 15.729 L 12.012 13.436 L 9.719 15.729 C 9.524 15.924 9.268 16.022 9.012 16.022 C 8.756 16.022 8.5 15.924 8.305 15.729 C 7.914 15.338 7.914 14.706 8.305 14.315 L 10.598 12.022 L 8.305 9.729 C 7.914 9.338 7.914 8.706 8.305 8.315 C 8.696 7.924 9.328 7.924 9.719 8.315 L 12.012 10.608 L 14.305 8.315 C 14.696 7.924 15.328 7.924 15.719 8.315 C 16.11 8.706 16.11 9.338 15.719 9.729 L 13.426 12.022 L 15.719 14.315 Z" fill="currentColor" fill-rule="evenodd"></path>
</svg>