<svg xmlns="http://www.w3.org/2000/svg" width="24" height="24" viewBox="0 0 24 24" fill="none">
  <path d="M 2 17.5 L 4.5 17.5 C 5.605 17.5 6.5 18.395 6.5 19.5 L 6.5 22 C 6.5 23.105 5.605 24 4.5 24 L 2 24 C 0.895 24 0 23.105 0 22 L 0 19.5 C 0 18.395 0.895 17.5 2 17.5 Z" fill="currentColor" fill-rule="nonzero"></path>
  <path d="M 19.5 17.5 L 22 17.5 C 23.105 17.5 24 18.395 24 19.5 L 24 22 C 24 23.105 23.105 24 22 24 L 19.5 24 C 18.395 24 17.5 23.105 17.5 22 L 17.5 19.5 C 17.5 18.395 18.395 17.5 19.5 17.5 Z" fill="currentColor" fill-rule="nonzero"></path>
  <path d="M 2 8.75 L 4.5 8.75 C 5.605 8.75 6.5 9.645 6.5 10.75 L 6.5 13.25 C 6.5 14.355 5.605 15.25 4.5 15.25 L 2 15.25 C 0.895 15.25 0 14.355 0 13.25 L 0 10.75 C 0 9.645 0.895 8.75 2 8.75 Z" fill="currentColor" fill-rule="nonzero"></path>
  <path d="M 19.5 8.75 L 22 8.75 C 23.105 8.75 24 9.645 24 10.75 L 24 13.25 C 24 14.355 23.105 15.25 22 15.25 L 19.5 15.25 C 18.395 15.25 17.5 14.355 17.5 13.25 L 17.5 10.75 C 17.5 9.645 18.395 8.75 19.5 8.75 Z" fill="currentColor" fill-rule="nonzero"></path>
  <path d="M 2 0 L 4.5 0 C 5.605 0 6.5 0.895 6.5 2 L 6.5 4.5 C 6.5 5.605 5.605 6.5 4.5 6.5 L 2 6.5 C 0.895 6.5 0 5.605 0 4.5 L 0 2 C 0 0.895 0.895 0 2 0 Z" fill="currentColor" fill-rule="nonzero"></path>
  <path d="M 10.75 17.5 L 13.25 17.5 C 14.355 17.5 15.25 18.395 15.25 19.5 L 15.25 22 C 15.25 23.105 14.355 24 13.25 24 L 10.75 24 C 9.645 24 8.75 23.105 8.75 22 L 8.75 19.5 C 8.75 18.395 9.645 17.5 10.75 17.5 Z" fill="currentColor" fill-rule="nonzero"></path>
  <path d="M 10.75 8.75 L 13.25 8.75 C 14.355 8.75 15.25 9.645 15.25 10.75 L 15.25 13.25 C 15.25 14.355 14.355 15.25 13.25 15.25 L 10.75 15.25 C 9.645 15.25 8.75 14.355 8.75 13.25 L 8.75 10.75 C 8.75 9.645 9.645 8.75 10.75 8.75 Z" fill="currentColor" fill-rule="nonzero"></path>
  <path d="M 10.75 0 L 13.25 0 C 14.355 0 15.25 0.895 15.25 2 L 15.25 4.5 C 15.25 5.605 14.355 6.5 13.25 6.5 L 10.75 6.5 C 9.645 6.5 8.75 5.605 8.75 4.5 L 8.75 2 C 8.75 0.895 9.645 0 10.75 0 Z" fill="currentColor" fill-rule="nonzero"></path>
  <path d="M 19.5 0 L 22 0 C 23.105 0 24 0.895 24 2 L 24 4.5 C 24 5.605 23.105 6.5 22 6.5 L 19.5 6.5 C 18.395 6.5 17.5 5.605 17.5 4.5 L 17.5 2 C 17.5 0.895 18.395 0 19.5 0 Z" fill="currentColor" fill-rule="nonzero"></path>
</svg>