<svg xmlns="http://www.w3.org/2000/svg" width="24" height="24" viewBox="0 0 24 24" fill="none">
  <path d="M 18 12 C 14.686 12 12 14.686 12 18 C 12 21.314 14.686 24 18 24 C 21.314 24 24 21.314 24 18 C 24 14.686 21.314 12 18 12 Z M 18 14 C 19.105 14 20 14.895 20 16 C 20 17.105 19.105 18 18 18 C 16.895 18 16 17.105 16 16 C 16 14.895 16.895 14 18 14 Z M 21 20.64 C 21 20.64 20.993 20.651 20.989 20.655 C 20.309 21.421 19.337 21.928 18.236 21.993 C 16.954 22.069 15.787 21.517 15 20.618 L 15 20.499 C 15 19.671 15.672 18.999 16.5 18.999 L 19.5 18.999 C 20.328 18.999 21 19.671 21 20.499 L 21 20.64 Z M 24 7.5 L 24 10 C 24 10.828 23.328 11.5 22.5 11.5 C 21.672 11.5 21 10.828 21 10 L 3 10 L 3 18.5 C 3 19.881 4.119 21 5.5 21 L 9.5 21 C 10.328 21 11 21.672 11 22.5 C 11 23.328 10.328 24 9.5 24 L 5.5 24 C 2.462 24 0 21.538 0 18.5 L 0 7.5 C 0 4.462 2.462 2 5.5 2 L 6 2 L 6 1.5 C 6 0.672 6.672 0 7.5 0 C 8.328 0 9 0.672 9 1.5 L 9 2 L 15 2 L 15 1.507 C 15 0.674 15.675 0 16.507 0 L 16.545 0 C 17.349 0 18 0.652 18 1.455 L 18 2 L 18.5 2 C 21.538 2 24 4.462 24 7.5 Z" fill="currentColor" fill-rule="nonzero"></path>
</svg>