<svg xmlns="http://www.w3.org/2000/svg" width="24" height="24" viewBox="0 0 24 24" fill="none">
  <path d="M 8.5 0 L 5 0 C 2.243 0 0 2.243 0 5 L 0 6.5 C 0 7.879 1.121 9 2.5 9 L 8.5 9 C 9.879 9 11 7.879 11 6.5 L 11 2.5 C 11 1.121 9.879 0 8.5 0 Z M 8 6 L 3 6 L 3 5 C 3 3.897 3.897 3 5 3 L 8 3 L 8 6 Z M 21.5 15 L 15.5 15 C 14.121 15 13 16.121 13 17.5 L 13 21.5 C 13 22.879 14.121 24 15.5 24 L 19 24 C 21.757 24 24 21.757 24 19 L 24 17.5 C 24 16.121 22.879 15 21.5 15 Z M 21 19 C 21 20.103 20.103 21 19 21 L 16 21 L 16 18 L 21 18 L 21 19 Z M 19 0 L 15.5 0 C 14.121 0 13 1.121 13 2.5 L 13 10.5 C 13 11.879 14.121 13 15.5 13 L 21.5 13 C 22.879 13 24 11.879 24 10.5 L 24 5 C 24 2.243 21.757 0 19 0 Z M 21 10 L 16 10 L 16 3 L 19 3 C 20.103 3 21 3.897 21 5 L 21 10 Z M 8.5 11 L 2.5 11 C 1.121 11 0 12.121 0 13.5 L 0 19 C 0 21.757 2.243 24 5 24 L 8.5 24 C 9.879 24 11 22.879 11 21.5 L 11 13.5 C 11 12.121 9.879 11 8.5 11 Z M 8 21 L 5 21 C 3.897 21 3 20.103 3 19 L 3 14 L 8 14 L 8 21 Z" fill="currentColor" fill-rule="nonzero"></path>
</svg>