<svg xmlns="http://www.w3.org/2000/svg" width="23.998" height="24" viewBox="0 0 23.998 24" fill="none">
  <path d="M 23.56 21.445 L 18.915 16.798 C 22.391 12.153 21.443 5.57 16.798 2.095 C 12.153 -1.381 5.57 -0.433 2.095 4.211 C -1.381 8.856 -0.433 15.439 4.211 18.915 C 7.942 21.707 13.067 21.707 16.798 18.915 L 21.445 23.562 C 22.029 24.146 22.976 24.146 23.56 23.562 C 24.144 22.978 24.144 22.031 23.56 21.447 L 23.56 21.445 Z M 10.543 18.018 C 6.415 18.018 3.069 14.672 3.069 10.543 C 3.069 6.415 6.415 3.069 10.543 3.069 C 14.672 3.069 18.018 6.415 18.018 10.543 C 18.014 14.67 14.67 18.014 10.543 18.018 Z" fill="currentColor" fill-rule="nonzero"></path>
</svg>